:FULLY-SPECIFIED
:FORCE-ALL-JOINTS-BE-3DOF
:DEGREES
849
root 3.8632 16.305 28.0861 -8.82826 6.1158 359.281
lfemur -23.5152 0.58778 -17.1576
ltibia 37.1934 0 0
lfoot -7.40813 -12.2084 0
ltoes 1.40668 0 0
rfemur -32.5056 -3.50313 0.809955
rtibia 104.16 0 0
rfoot 37.1336 22.0238 0
rtoes -4.25318 0 0
lowerback 3.52085 3.29274 -2.59006
upperback 0.825122 4.30249 0.396397
thorax -1.34371 2.15967 1.64967
lowerneck -6.35584 -3.78895 2.48395
upperneck 9.09353 -5.47333 1.2671
head 4.07766 -2.55367 -0.314777
lclavicle 1.68107e-14 1.40421e-14 0
lhumerus -51.2598 -9.80459 84.4174
lradius 55.8193 0 0
lwrist 20.795 0 0
lhand -3.29517 3.47862 0
lfingers 7.12502 0 0
lthumb 22.4305 32.1947 0
rclavicle 1.68107e-14 1.40421e-14 0
rhumerus -38.0534 15.2923 -67.2722
rradius 50.9211 0 0
rwrist 9.57749 0 0
rhand -36.6012 -32.7625 0
rfingers 7.12502 0 0
rthumb -9.68981 -782.52 0
850
root 3.87412 16.3127 28.1342 -9.12631 6.60267 359.35
lfemur -23.0974 0.737008 -17.4045
ltibia 37.1883 0 0
lfoot -7.42382 -12.7568 0
ltoes 2.03683 0 0
rfemur -33.8054 -3.30191 0.66288
rtibia 104.383 0 0
rfoot 37.1103 21.6057 0
rtoes -3.31764 0 0
lowerback 3.85786 3.12427 -2.7325
upperback 0.943813 4.06507 0.3505
thorax -1.4063 2.0412 1.68799
lowerneck -6.34817 -3.79773 2.46267
upperneck 9.11171 -5.48778 1.3123
head 4.08434 -2.55907 -0.296895
lclavicle 1.76408e-14 1.31435e-14 0
lhumerus -50.8374 -10.1798 84.2852
lradius 55.8249 0 0
lwrist 20.9292 0 0
lhand -3.08794 3.46975 0
lfingers 7.12502 0 0
lthumb 22.6291 32.1582 0
rclavicle 1.76408e-14 1.31435e-14 0
rhumerus -38.4428 14.773 -66.7193
rradius 50.8062 0 0
rwrist 9.44882 0 0
rhand -36.4343 -32.8636 0
rfingers 7.12502 0 0
rthumb -9.52847 -782.629 0
851
root 3.88804 16.3259 28.2043 -9.59431 7.37824 359.424
lfemur -22.4245 0.974635 -17.7333
ltibia 37.1176 0 0
lfoot -7.37752 -13.6479 0
ltoes 3.14382 0 0
rfemur -35.764 -2.95162 0.424125
rtibia 104.325 0 0
rfoot 36.752 20.6472 0
rtoes -1.93023 0 0
lowerback 4.39825 2.85242 -2.92827
upperback 1.1353 3.68068 0.276887
thorax -1.50015 1.84928 1.73644
lowerneck -6.32702 -3.80483 2.4358
upperneck 9.13404 -5.5024 1.39026
head 4.09102 -2.56317 -0.266893
lclavicle 1.8735e-14 1.15333e-14 0
lhumerus -50.136 -10.7676 84.0679
lradius 55.7759 0 0
lwrist 21.1172 0 0
lhand -2.73007 3.47799 0
lfingers 7.12502 0 0
lthumb 22.9721 32.1194 0
rclavicle 1.8735e-14 1.15333e-14 0
rhumerus -39.0848 14.0186 -65.9314
rradius 50.6883 0 0
rwrist 9.15973 0 0
rhand -36.0557 -32.9298 0
rfingers 7.12502 0 0
rthumb -9.16227 -782.716 0
852
root 3.90234 16.3444 28.2898 -10.2038 8.40151 359.48
lfemur -21.5262 1.2907 -18.0913
ltibia 36.9512 0 0
lfoot -7.23425 -14.8433 0
ltoes 4.72658 0 0
rfemur -38.2247 -2.46292 0.122648
rtibia 103.734 0 0
rfoot 35.8865 19.0422 0
rtoes -0.24198 0 0
lowerback 5.11833 2.48906 -3.15084
upperback 1.39182 3.16519 0.178266
thorax -1.61749 1.59175 1.78534
lowerneck -6.28937 -3.8055 2.40881
upperneck 9.15357 -5.51106 1.50098
head 4.09457 -2.56291 -0.225244
lclavicle 1.99152e-14 9.1918e-15 0
lhumerus -49.1725 -11.5363 83.7726
lradius 55.6469 0 0
lwrist 21.3357 0 0
lhand -2.21984 3.51568 0
lfingers 7.12502 0 0
lthumb 23.4613 32.0908 0
rclavicle 1.99152e-14 9.1918e-15 0
rhumerus -39.9591 13.0995 -64.9944
rradius 50.611 0 0
rwrist 8.67872 0 0
rhand -35.4069 -32.902 0
rfingers 7.12502 0 0
rthumb -8.5349 -782.722 0
853
root 3.91516 16.3676 28.3849 -10.9222 9.62115 359.504
lfemur -20.4415 1.67445 -18.439
ltibia 36.6779 0 0
lfoot -6.98046 -16.2875 0
ltoes 6.74221 0 0
rfemur -41.042 -1.86661 -0.191699
rtibia 102.446 0 0
rfoot 34.4197 16.7789 0
rtoes 1.58695 0 0
lowerback 5.9889 2.05017 -3.38033
upperback 1.70333 2.54023 0.057651
thorax -1.75118 1.27941 1.82754
lowerneck -6.23551 -3.79628 2.38583
upperneck 9.16296 -5.50906 1.64257
head 4.09235 -2.55608 -0.172981
lclavicle 2.10554e-14 6.16342e-15 0
lhumerus -47.977 -12.4538 83.41
lradius 55.4318 0 0
lwrist 21.5664 0 0
lhand -1.56303 3.58939 0
lfingers 7.12502 0 0
lthumb 24.0909 32.0792 0
rclavicle 2.10554e-14 6.16342e-15 0
rhumerus -41.0328 12.0679 -63.9738
rradius 50.6033 0 0
rwrist 8.0003 0 0
rhand -34.4509 -32.743 0
rfingers 7.12502 0 0
rthumb -7.6106 -782.61 0
854
root 3.92541 16.3945 28.4854 -11.7123 10.9756 359.493
lfemur -19.2189 2.11437 -18.7498
ltibia 36.3047 0 0
lfoot -6.624 -17.9078 0
ltoes 9.106 0 0
rfemur -44.082 -1.2136 -0.448165
rtibia 100.383 0 0
rfoot 32.3358 13.9408 0
rtoes 3.38722 0 0
lowerback 6.97527 1.55574 -3.60351
upperback 2.05753 1.83325 -0.0816393
thorax -1.89479 0.925944 1.85849
lowerneck -6.16904 -3.77493 2.36965
upperneck 9.15451 -5.49311 1.81121
head 4.08219 -2.5413 -0.111692
lclavicle 2.20812e-14 2.55631e-15 0
lhumerus -46.593 -13.4875 82.9949
lradius 55.1445 0 0
lwrist 21.7961 0 0
lhand -0.772926 3.69994 0
lfingers 7.12502 0 0
lthumb 24.8483 32.0864 0
rclavicle 2.20812e-14 2.55631e-15 0
rhumerus -42.2601 10.9583 -62.9142
rradius 50.6792 0 0
rwrist 7.14501 0 0
rhand -33.1717 -32.4375 0
rfingers 7.12502 0 0
rthumb -6.37411 -782.36 0
